control3min_grf.mot
version=1
nRows=12
nColumns 19
inDegrees=yes
endheader
time	1_ground_force_vx	1_ground_force_vy	1_ground_force_vz	1_ground_force_px	1_ground_force_py	1_ground_force_pz	1_ground_torque_x	1_ground_torque_y	1_ground_torque_z	2_ground_force_vx	2_ground_force_vy	2_ground_force_vz	2_ground_force_px	2_ground_force_py	2_ground_force_pz	2_ground_torque_x	2_ground_torque_y	2_ground_torque_z
            0.005000	            0.139902	            0.716764	            1.011581	           -0.192251	            0.006251	           -0.410220	           -0.175236	           -0.036263	           -0.144267	            0.189729	           -0.733239	           -0.753558	           -0.159781	            0.005585	           -0.607617	           -0.224757	           -0.198917	           -0.113714
            0.005500	            0.093996	           -0.184180	            0.916118	           -0.192251	            0.006251	           -0.410220	           -0.114783	            0.084452	           -0.277409	            0.096797	           -0.918562	           -0.519534	           -0.159781	            0.005585	           -0.607617	           -0.262687	           -0.095208	           -0.075626
            0.006000	            0.093993	            1.077286	            1.013240	           -0.192251	            0.006251	           -0.410220	           -0.194271	            0.111606	           -0.145553	            0.098064	           -1.286357	           -0.661633	           -0.159781	            0.005585	           -0.607617	           -0.168948	           -0.038287	           -0.037763
            0.006500	            0.002682	            0.896413	            1.150263	           -0.192251	            0.006251	           -0.410220	           -0.162700	            0.001057	           -0.243999	           -0.043191	           -1.102381	           -0.754772	           -0.159781	            0.005585	           -0.607617	           -0.244098	           -0.038491	           -0.056582
            0.007000	            0.232645	            0.534747	            1.423283	           -0.192251	            0.006251	           -0.410220	           -0.155472	           -0.137316	           -0.272420	            0.189003	           -0.548588	           -0.893685	           -0.159781	            0.005585	           -0.607617	           -0.300506	           -0.019923	           -0.018790
            0.007500	            0.048348	           -0.004316	            1.008716	           -0.192251	            0.006251	           -0.410220	           -0.193664	           -0.202449	           -0.205212	            0.049803	           -0.917560	           -0.848011	           -0.159781	            0.005585	           -0.607617	           -0.281429	           -0.113979	           -0.132236
            0.008000	            0.185973	            0.716380	            1.103179	           -0.192251	            0.006251	           -0.410220	           -0.141722	           -0.119181	           -0.199145	            0.379164	           -1.285342	           -0.661752	           -0.159781	            0.005585	           -0.607617	           -0.262414	           -0.170829	           -0.075896
            0.008500	            0.232043	            0.715995	            1.194777	           -0.192251	            0.006251	           -0.410220	           -0.239273	           -0.017902	           -0.102523	            0.519775	           -1.285336	           -0.521028	           -0.159781	            0.005585	           -0.607617	           -0.187342	           -0.142469	           -0.000426
            0.009000	            0.185813	           -0.905225	            0.912798	           -0.192251	            0.006251	           -0.410220	           -0.132939	            0.065762	           -0.217114	           -0.089959	           -1.103220	           -0.567040	           -0.159781	            0.005585	           -0.607617	           -0.281489	           -0.095141	           -0.113319
            0.009500	            0.047907	            0.537070	            0.873467	           -0.192251	            0.006251	           -0.410220	           -0.132012	            0.028885	           -0.260786	           -0.041197	           -1.654826	           -0.756743	           -0.159781	            0.005585	           -0.607617	           -0.206432	           -0.075830	           -0.150984
            0.010000	           -0.042706	            0.895618	            1.333800	           -0.192251	            0.006251	           -0.410220	           -0.170412	           -0.110041	           -0.208815	            0.003556	           -1.101375	           -0.989433	           -0.159781	            0.005585	           -0.607617	           -0.187717	           -0.038489	           -0.000055
            0.010500	            0.003056	            0.715558	            1.287057	           -0.192251	            0.006251	           -0.410220	           -0.149464	           -0.147152	           -0.169468	           -0.093405	           -0.181474	           -0.845323	           -0.159781	            0.005585	           -0.607617	           -0.281472	           -0.095275	           -0.075618
